# Aspose.3D Wavefront OBJ Exporter
# Copyright 2004-2021 Aspose Pty Ltd.
# File created: 10/05/2021 07:05:21


#
# object CATIA STL
#

v 5 160 10
v 5 160 20
v 5 140 10
v 5 140 10
v 5 160 20
v 5 150 20
v 5 140 10
v 5 150 20
v 5 140 50
v 5 140 50
v 5 150 20
v 5 150 40
v 5 140 50
v 5 150 40
v 5 160 50
v 5 160 50
v 5 150 40
v 5 160 40
v 0 140 10
v 0 160 20
v 0 160 10
v 0 160 20
v 0 140 10
v 0 150 20
v 0 150 20
v 0 140 10
v 0 140 50
v 0 150 20
v 0 140 50
v 0 150 40
v 0 150 40
v 0 140 50
v 0 160 50
v 0 150 40
v 0 160 50
v 0 160 40
v 5 140 10
v 0 140 10
v 5 160 10
v 5 160 10
v 0 140 10
v 0 160 10
v 5 140 50
v 0 140 50
v 5 140 10
v 5 140 10
v 0 140 50
v 0 140 10
v 5 160 50
v 0 160 50
v 5 140 50
v 5 140 50
v 0 160 50
v 0 140 50
v 5 160 40
v 0 160 40
v 5 160 50
v 5 160 50
v 0 160 40
v 0 160 50
v 5 160 40
v 5 150 40
v 0 160 40
v 0 160 40
v 5 150 40
v 0 150 40
v 5 150 40
v 5 150 20
v 0 150 40
v 0 150 40
v 5 150 20
v 0 150 20
v 5 150 20
v 5 160 20
v 0 150 20
v 0 150 20
v 5 160 20
v 0 160 20
v 5 160 10
v 0 160 10
v 5 160 20
v 5 160 20
v 0 160 10
v 0 160 20
# 84 vertices

vn 1 0 0
vn 1 0 0
vn 1 0 0
vn 1 0 0
vn 1 0 0
vn 1 0 0
vn -1 0 0
vn -1 0 0
vn -1 0 0
vn -1 0 0
vn -1 0 0
vn -1 0 0
vn 0 0 -1
vn 0 0 -1
vn 0 -1 0
vn 0 -1 0
vn 0 0 1
vn 0 0 1
vn 0 1 0
vn 0 1 0
vn 0 0 -1
vn 0 0 -1
vn 0 1 0
vn 0 1 0
vn 0 0 1
vn 0 0 1
vn 0 1 0
vn 0 1 0
# 28 vertex normals

g CATIA STL
s 1
f 1//1 2//1 3//1
f 4//2 5//2 6//2
f 7//3 8//3 9//3
f 10//4 11//4 12//4
f 13//5 14//5 15//5
f 16//6 17//6 18//6
f 19//7 20//7 21//7
f 22//8 23//8 24//8
f 25//9 26//9 27//9
f 28//10 29//10 30//10
f 31//11 32//11 33//11
f 34//12 35//12 36//12
f 37//13 38//13 39//13
f 40//14 41//14 42//14
f 43//15 44//15 45//15
f 46//16 47//16 48//16
f 49//17 50//17 51//17
f 52//18 53//18 54//18
f 55//19 56//19 57//19
f 58//20 59//20 60//20
f 61//21 62//21 63//21
f 64//22 65//22 66//22
f 67//23 68//23 69//23
f 70//24 71//24 72//24
f 73//25 74//25 75//25
f 76//26 77//26 78//26
f 79//27 80//27 81//27
f 82//28 83//28 84//28
#28 polygons

