# Aspose.3D Wavefront OBJ Exporter
# Copyright 2004-2021 Aspose Pty Ltd.
# File created: 10/05/2021 07:06:19


#
# object CATIA STL
#

v 5 110 100
v 5 100.16570000000000106 100
v 5 110 90
v 5 110 90
v 5 100.16570000000000106 100
v 5 100.16570000000000106 80
v 5 110 90
v 5 100.16570000000000106 80
v 5 130 90
v 5 130 90
v 5 100.16570000000000106 80
v 5 130 80
v 0 110 100
v 0 110 90
v 0 100.16570000000000106 100
v 0 100.16570000000000106 100
v 0 110 90
v 0 100.16570000000000106 80
v 0 110 90
v 0 130 90
v 0 100.16570000000000106 80
v 0 100.16570000000000106 80
v 0 130 90
v 0 130 80
v 5 110 100
v 5 110 90
v 0 110 100
v 0 110 100
v 5 110 90
v 0 110 90
v 5 110 90
v 5 130 90
v 0 110 90
v 0 110 90
v 5 130 90
v 0 130 90
v 5 130 90
v 5 130 80
v 0 130 90
v 0 130 90
v 5 130 80
v 0 130 80
v 5 100.16570000000000106 80
v 0 100.16570000000000106 80
v 5 130 80
v 5 130 80
v 0 100.16570000000000106 80
v 0 130 80
v 5 100.16570000000000106 100
v 0 100.16570000000000106 100
v 5 100.16570000000000106 80
v 5 100.16570000000000106 80
v 0 100.16570000000000106 100
v 0 100.16570000000000106 80
v 5 110 100
v 0 110 100
v 5 100.16570000000000106 100
v 5 100.16570000000000106 100
v 0 110 100
v 0 100.16570000000000106 100
# 60 vertices

vn 1 0 0
vn 1 0 0
vn 1 0 0
vn 1 0 0
vn -1 0 0
vn -1 0 0
vn -1 0 0
vn -1 0 0
vn 0 1 0
vn 0 1 0
vn 0 0 1
vn 0 0 1
vn 0 1 0
vn 0 1 0
vn 0 0 -1
vn 0 0 -1
vn 0 -1 0
vn 0 -1 0
vn 0 0 1
vn 0 0 1
# 20 vertex normals

g CATIA STL
s 1
f 1//1 2//1 3//1
f 4//2 5//2 6//2
f 7//3 8//3 9//3
f 10//4 11//4 12//4
f 13//5 14//5 15//5
f 16//6 17//6 18//6
f 19//7 20//7 21//7
f 22//8 23//8 24//8
f 25//9 26//9 27//9
f 28//10 29//10 30//10
f 31//11 32//11 33//11
f 34//12 35//12 36//12
f 37//13 38//13 39//13
f 40//14 41//14 42//14
f 43//15 44//15 45//15
f 46//16 47//16 48//16
f 49//17 50//17 51//17
f 52//18 53//18 54//18
f 55//19 56//19 57//19
f 58//20 59//20 60//20
#20 polygons

