# File produced by Open Asset Import Library (http://www.assimp.sf.net)
# (assimp v5.0.1588609223)

mtllib result.mtl

# 28 vertex positions
v  0.045277715 0.31229404 0.35446128
v  0.045277715 0.31229404 0.15753821
v  -0.25010687 -0.19970593 0.35446128
v  -0.25010687 -0.19970593 0.15753821
v  0.045277715 -0.1012444 0.15753821
v  0.045277715 -0.1012444 0.35446128
v  0.045277715 -0.0027828664 0.15753821
v  0.045277715 -0.0027828664 0.35446128
v  0.0058931001 -0.0027828664 0.15753821
v  0.0058931001 -0.0027828664 0.35446128
v  0.0058931001 0.11537099 0.15753821
v  0.0058931001 0.11537099 0.35446128
v  0.045277715 0.11537099 0.15753821
v  0.045277715 0.11537099 0.35446128
v  0.34208935 -0.19970593 0.35446084
v  0.34208935 -0.19970593 0.15753776
v  0.046704769 0.31229404 0.35446084
v  0.046704769 0.31229404 0.15753776
v  0.046704769 0.11537099 0.15753776
v  0.046704769 0.11537099 0.35446084
v  0.0073201545 0.11537099 0.15753776
v  0.0073201545 0.11537099 0.35446084
v  0.0073201545 -0.0027828664 0.15753776
v  0.0073201545 -0.0027828664 0.35446084
v  0.046704769 -0.0027828664 0.15753776
v  0.046704769 -0.0027828664 0.35446084
v  0.046704769 -0.1012444 0.15753776
v  0.046704769 -0.1012444 0.35446084

# 0 UV coordinates

# 10 vertex normals
vn -17.053913 9.8463707 0
vn 6.2053905 -18.689037 0
vn 19.692307 0 0
vn 0 19.692307 0
vn 0 -19.692307 0
vn -0 -0 -19.692307
vn 0 0 19.692307
vn 17.053913 9.8463707 0
vn -19.692307 0 0
vn -6.2053905 -18.689037 0

# Mesh 'mesh_id4' with 2 faces
g mesh_id4
usemtl 87
f  1//1 2//1 3//1
f  4//1 3//1 2//1

# Mesh 'mesh_id5' with 2 faces
g mesh_id5
usemtl 89
f  3//2 4//2 5//2
f  5//2 6//2 3//2

# Mesh 'mesh_id6' with 2 faces
g mesh_id6
usemtl 91
f  6//3 5//3 7//3
f  7//3 8//3 6//3

# Mesh 'mesh_id7' with 2 faces
g mesh_id7
usemtl 93
f  8//4 7//4 9//4
f  9//4 10//4 8//4

# Mesh 'mesh_id8' with 2 faces
g mesh_id8
usemtl 95
f  10//3 9//3 11//3
f  11//3 12//3 10//3

# Mesh 'mesh_id9' with 2 faces
g mesh_id9
usemtl 97
f  12//5 11//5 13//5
f  13//5 14//5 12//5

# Mesh 'mesh_id10' with 2 faces
g mesh_id10
usemtl 99
f  14//3 13//3 2//3
f  2//3 1//3 14//3

# Mesh 'mesh_id11' with 5 faces
g mesh_id11
usemtl 101
f  11//6 9//6 4//6
f  5//6 4//6 9//6
f  2//6 11//6 4//6
f  9//6 7//6 5//6
f  11//6 2//6 13//6

# Mesh 'mesh_id12' with 5 faces
g mesh_id12
usemtl 103
f  3//7 10//7 12//7
f  10//7 3//7 6//7
f  3//7 12//7 1//7
f  6//7 8//7 10//7
f  14//7 1//7 12//7

# Mesh 'mesh_id40' with 2 faces
g mesh_id40
usemtl 105
f  15//8 16//8 17//8
f  18//8 17//8 16//8

# Mesh 'mesh_id41' with 2 faces
g mesh_id41
usemtl 107
f  18//9 19//9 20//9
f  20//9 17//9 18//9

# Mesh 'mesh_id42' with 2 faces
g mesh_id42
usemtl 109
f  19//4 21//4 22//4
f  22//4 20//4 19//4

# Mesh 'mesh_id43' with 2 faces
g mesh_id43
usemtl 111
f  21//9 23//9 24//9
f  24//9 22//9 21//9

# Mesh 'mesh_id44' with 2 faces
g mesh_id44
usemtl 113
f  23//5 25//5 26//5
f  26//5 24//5 23//5

# Mesh 'mesh_id45' with 2 faces
g mesh_id45
usemtl 115
f  25//9 27//9 28//9
f  28//9 26//9 25//9

# Mesh 'mesh_id46' with 2 faces
g mesh_id46
usemtl 117
f  27//10 16//10 15//10
f  15//10 28//10 27//10

# Mesh 'mesh_id47' with 5 faces
g mesh_id47
usemtl 119
f  23//6 21//6 19//6
f  25//6 16//6 27//6
f  16//6 25//6 19//6
f  23//6 19//6 25//6
f  19//6 18//6 16//6

# Mesh 'mesh_id48' with 5 faces
g mesh_id48
usemtl 121
f  20//7 22//7 24//7
f  28//7 15//7 26//7
f  20//7 26//7 15//7
f  26//7 20//7 24//7
f  15//7 17//7 20//7

