#Wavefront Obj file
#Converted from Glovius
#HCL Technologies Ltd
#http://www.glovius.com
#
mtllib c.mtl
g Part4.3
usemtl Mat_2_-1
# Vertices 4
v 0.0030 -0.0000 -0.0050
v 0.0150 0.0000 -0.0050
v 0.0150 0.0000 0.0050
v 0.0030 -0.0000 0.0050
# Normals 4
vn 0.0000 -1.0000 0.0000
vn 0.0000 -1.0000 0.0000
vn 0.0000 -1.0000 0.0000
vn 0.0000 -1.0000 0.0000
# Faces
f 1//1 2//2 3//3 
f 3//3 4//4 1//1 
usemtl Mat_2_-1
# Vertices 4
v 0.0150 0.0000 0.0050
v 0.0150 0.0000 -0.0050
v -0.0000 0.0050 -0.0050
v -0.0000 0.0050 0.0050
# Normals 4
vn 0.3151 0.9490 -0.0000
vn 0.3151 0.9490 -0.0000
vn 0.3151 0.9490 -0.0000
vn 0.3151 0.9490 -0.0000
# Faces
f 5//5 6//6 7//7 
f 7//7 8//8 5//5 
usemtl Mat_2_-1
# Vertices 4
v -0.0000 0.0050 -0.0050
v -0.0150 -0.0000 -0.0050
v -0.0150 -0.0000 0.0050
v -0.0000 0.0050 0.0050
# Normals 4
vn -0.3151 0.9490 0.0000
vn -0.3151 0.9490 0.0000
vn -0.3151 0.9490 0.0000
vn -0.3151 0.9490 0.0000
# Faces
f 9//9 10//10 11//11 
f 11//11 12//12 9//9 
usemtl Mat_2_-1
# Vertices 4
v -0.0150 -0.0000 -0.0050
v -0.0030 -0.0000 -0.0050
v -0.0030 -0.0000 0.0050
v -0.0150 -0.0000 0.0050
# Normals 4
vn 0.0000 -1.0000 0.0000
vn 0.0000 -1.0000 0.0000
vn 0.0000 -1.0000 0.0000
vn 0.0000 -1.0000 0.0000
# Faces
f 13//13 14//14 15//15 
f 15//15 16//16 13//13 
usemtl Mat_2_-1
# Vertices 4
v -0.0030 -0.0000 0.0050
v -0.0030 -0.0000 -0.0050
v -0.0030 0.0020 -0.0050
v -0.0030 0.0020 0.0050
# Normals 4
vn 1.0000 0.0000 -0.0000
vn 1.0000 0.0000 -0.0000
vn 1.0000 0.0000 -0.0000
vn 1.0000 0.0000 -0.0000
# Faces
f 17//17 18//18 19//19 
f 19//19 20//20 17//17 
usemtl Mat_2_-1
# Vertices 4
v -0.0030 0.0020 0.0050
v -0.0030 0.0020 -0.0050
v 0.0000 0.0020 -0.0050
v 0.0000 0.0020 0.0050
# Normals 4
vn 0.0000 -1.0000 -0.0000
vn 0.0000 -1.0000 -0.0000
vn 0.0000 -1.0000 -0.0000
vn 0.0000 -1.0000 -0.0000
# Faces
f 21//21 22//22 23//23 
f 23//23 24//24 21//21 
usemtl Mat_2_-1
# Vertices 4
v 0.0000 0.0020 0.0050
v 0.0000 0.0020 -0.0050
v 0.0030 0.0020 -0.0050
v 0.0030 0.0020 0.0050
# Normals 4
vn 0.0000 -1.0000 -0.0000
vn 0.0000 -1.0000 -0.0000
vn 0.0000 -1.0000 -0.0000
vn 0.0000 -1.0000 -0.0000
# Faces
f 25//25 26//26 27//27 
f 27//27 28//28 25//25 
usemtl Mat_2_-1
# Vertices 4
v 0.0030 0.0020 -0.0050
v 0.0030 -0.0000 -0.0050
v 0.0030 -0.0000 0.0050
v 0.0030 0.0020 0.0050
# Normals 4
vn -1.0000 0.0000 0.0000
vn -1.0000 0.0000 0.0000
vn -1.0000 0.0000 0.0000
vn -1.0000 0.0000 0.0000
# Faces
f 29//29 30//30 31//31 
f 31//31 32//32 29//29 
usemtl Mat_2_-1
# Vertices 8
v -0.0030 0.0020 -0.0050
v -0.0030 -0.0000 -0.0050
v -0.0150 -0.0000 -0.0050
v -0.0000 0.0050 -0.0050
v 0.0000 0.0020 -0.0050
v 0.0030 0.0020 -0.0050
v 0.0150 0.0000 -0.0050
v 0.0030 -0.0000 -0.0050
# Normals 8
vn -0.0000 -0.0000 -1.0000
vn -0.0000 -0.0000 -1.0000
vn -0.0000 -0.0000 -1.0000
vn -0.0000 -0.0000 -1.0000
vn -0.0000 -0.0000 -1.0000
vn -0.0000 -0.0000 -1.0000
vn -0.0000 -0.0000 -1.0000
vn -0.0000 -0.0000 -1.0000
# Faces
f 33//33 34//34 35//35 
f 35//35 36//36 33//33 
f 33//33 36//36 37//37 
f 38//38 39//39 40//40 
f 36//36 38//38 37//37 
f 38//38 36//36 39//39 
usemtl Mat_2_-1
# Vertices 8
v -0.0150 -0.0000 0.0050
v -0.0030 -0.0000 0.0050
v -0.0030 0.0020 0.0050
v -0.0000 0.0050 0.0050
v 0.0000 0.0020 0.0050
v 0.0030 -0.0000 0.0050
v 0.0150 0.0000 0.0050
v 0.0030 0.0020 0.0050
# Normals 8
vn 0.0000 0.0000 1.0000
vn 0.0000 0.0000 1.0000
vn 0.0000 0.0000 1.0000
vn 0.0000 0.0000 1.0000
vn 0.0000 0.0000 1.0000
vn 0.0000 0.0000 1.0000
vn 0.0000 0.0000 1.0000
vn 0.0000 0.0000 1.0000
# Faces
f 41//41 42//42 43//43 
f 43//43 44//44 41//41 
f 45//45 44//44 43//43 
f 46//46 47//47 48//48 
f 45//45 48//48 44//44 
f 47//47 44//44 48//48 
