#Wavefront Obj file
#Converted from Glovius
#HCL Technologies Ltd
#http://www.glovius.com
#
mtllib d.mtl
g Part4
usemtl Mat_2_-1
# Vertices 4
v -0.0030 -0.0000 -0.0050
v -0.0030 -0.0000 0.0050
v -0.0030 0.0020 0.0050
v -0.0030 0.0020 -0.0050
# Normals 4
vn -1.0000 -0.0000 -0.0000
vn -1.0000 -0.0000 -0.0000
vn -1.0000 -0.0000 -0.0000
vn -1.0000 -0.0000 -0.0000
# Faces
f 1//1 2//2 3//3 
f 3//3 4//4 1//1 
usemtl Mat_2_-1
# Vertices 4
v 0.0030 -0.0000 -0.0050
v 0.0030 -0.0000 0.0050
v -0.0030 -0.0000 0.0050
v -0.0030 -0.0000 -0.0050
# Normals 4
vn -0.0000 -1.0000 -0.0000
vn -0.0000 -1.0000 -0.0000
vn -0.0000 -1.0000 -0.0000
vn -0.0000 -1.0000 -0.0000
# Faces
f 5//5 6//6 7//7 
f 7//7 8//8 5//5 
usemtl Mat_2_-1
# Vertices 4
v 0.0030 0.0020 0.0050
v 0.0030 -0.0000 0.0050
v 0.0030 -0.0000 -0.0050
v 0.0030 0.0020 -0.0050
# Normals 4
vn 1.0000 -0.0000 0.0000
vn 1.0000 -0.0000 0.0000
vn 1.0000 -0.0000 0.0000
vn 1.0000 -0.0000 0.0000
# Faces
f 9//9 10//10 11//11 
f 11//11 12//12 9//9 
usemtl Mat_2_-1
# Vertices 4
v -0.0030 0.0020 -0.0050
v -0.0030 0.0020 0.0050
v 0.0030 0.0020 0.0050
v 0.0030 0.0020 -0.0050
# Normals 4
vn -0.0000 1.0000 -0.0000
vn -0.0000 1.0000 -0.0000
vn -0.0000 1.0000 -0.0000
vn -0.0000 1.0000 -0.0000
# Faces
f 13//13 14//14 15//15 
f 15//15 16//16 13//13 
usemtl Mat_2_-1
# Vertices 4
v -0.0030 0.0020 0.0050
v -0.0030 -0.0000 0.0050
v 0.0030 0.0020 0.0050
v 0.0030 -0.0000 0.0050
# Normals 4
vn 0.0000 0.0000 1.0000
vn 0.0000 0.0000 1.0000
vn 0.0000 0.0000 1.0000
vn 0.0000 0.0000 1.0000
# Faces
f 17//17 18//18 19//19 
f 20//20 19//19 18//18 
usemtl Mat_2_-1
# Vertices 4
v 0.0030 0.0020 -0.0050
v -0.0030 -0.0000 -0.0050
v -0.0030 0.0020 -0.0050
v 0.0030 -0.0000 -0.0050
# Normals 4
vn -0.0000 -0.0000 -1.0000
vn -0.0000 -0.0000 -1.0000
vn -0.0000 -0.0000 -1.0000
vn -0.0000 -0.0000 -1.0000
# Faces
f 21//21 22//22 23//23 
f 22//22 21//21 24//24 
